<?xml version="1.0" encoding="UTF-8"?><svg id="Capa_2" xmlns="http://www.w3.org/2000/svg" viewBox="0 0 356.56 75.01"><defs><style>.cls-1{fill:#ffecd1;}.cls-1,.cls-2{stroke-width:0px;}.cls-2{fill:#ef7c1a;}</style></defs><g id="Capa_1-2"><path class="cls-1" d="m127.05,49.45c-1.29,1.98-2.4,4-3.33,6.16-.11.28-.26.56-.41.84-.18.35-.44.63-.96.56-.55-.1-.7-.24-.96-.77-.44-1.22-.3-2.37.04-3.55.92-3.24,2.03-6.33,3.55-9.4.41-.73.85-1.46,1.33-2.19.41-.59,1-.52,1.41.14s.59,1.29,0,1.98c-.18.28-.26.63-.33.97.22-.14.37-.31.59-.45.92-.7,1.81-1.46,2.81-2.12,1.15-.73,1.78-.49,2.63.56.48.66.55,1.36.63,2.09.07.7.11,1.32.15,2.05.89.35,1.92.03,3.07.14-.15.38-.22.73-.44.94-.67.84-1.55,1.39-2.59,1.81-1.15.42-2.18,0-2.52-1.11-.26-1.04.07-2.85.07-3.86-1.74,1.25-3.66,3.48-4.74,5.22Z"/><path class="cls-1" d="m152.33,54.95c-.3-.24-.63-.63-.74-1.01-.22-.77-.37-1.6-.48-2.44-.15-1.6.15-3.17.52-4.7.04-.14.04-.24.07-.42,0,0-.04-.03-.07-.1-.22.21-.41.42-.63.66-.92.97-1.81,1.95-2.77,2.96-.44.52-.96.97-1.52,1.43-.89.7-1.85.31-2.15-.84-.33-1.11-.26-2.16-.11-3.24,0-.21.04-.42.11-.73-.44.14-.59.45-.81.7-1.66,2.05-3.11,4.28-4.03,6.82-.11.28-.22.59-.37.87-.26.42-.55.56-1,.45-.59-.1-.7-.38-.85-.9-.48-1.64-.15-3.2.41-4.73.89-2.44,1.85-4.8,2.74-7.17.18-.45.41-.87.63-1.29.15-.28.37-.45.74-.38.33.03.48.17.59.49.41.84.59,1.64.15,2.68.67-.49,1.15-.9,1.66-1.25.89-.59,1.37-.38,1.92.56.37.7.41,1.46.41,2.23,0,.49-.04.94-.11,1.53.33-.28.55-.49.74-.73,1.85-1.88,3.66-3.79,5.51-5.67.85-.8,1.78-1.5,2.7-2.23.74-.59,1.29-.31,1.78.56.78,1.39.55,2.75-.04,4.07-.22.56-.48,1.08-.78,1.6-1.07,2.26-2.11,4.45-3.18,6.72-.18.45-.37.94-.41,1.5-.11.7,0,.87.7,1.15.07.03.18.03.26.07-.22.9-.89,1.25-1.59.8Z"/><path class="cls-1" d="m172.61,40.51c.55-.66.78-.63,1.15.14.26.49.3.94.07,1.43-.52,1.18-1.07,2.37-1.59,3.55-1.04,2.37-1.66,4.84-2.29,7.31.81-.49,1.44-1.22,2.11-1.88.7-.66,1.37-1.36,2.07-2.05.67-.66,1.37-1.29,2.29-1.74-.15.21-.3.38-.44.59-1.59,2.16-3.14,4.35-4.74,6.51-.3.38-.59.77-.92,1.11s-.78.52-1.26.31c-.52-.21-.92-.49-1-1.08-.11-1.22-.04-2.4.33-3.55.37-1.11.7-2.19.92-3.41-.18.24-.41.49-.63.7-1.48,1.5-2.92,3.03-4.4,4.49-.52.49-1.11.9-1.7,1.32-.37.21-.78.42-1.15.56-1.26.38-2.37-.17-2.74-1.36-.41-1.43-.37-2.89.07-4.28.96-3.06,2.89-5.5,5.7-7.27.89-.59,1.85-.97,3-.87,1.04.07,1.85.45,2.26,1.43.11.28.26.52.48.9.85-1.01,1.63-1.95,2.4-2.85Zm-4.22,4.63c-2.26-.07-5.88,2.92-7.03,5.88,1.85-.66,6.51-4.63,7.03-5.88Z"/><path class="cls-1" d="m183.04,41.24c.41-.24.89-.42,1.41-.45.63-.1,1.07.24,1.37.77.67,1.04.74,2.23.59,3.41-.11,1.22-.52,2.33-1.07,3.48-.22.49-.44.97-.63,1.5-.18.38-.22.77-.33,1.18.07.03.15.03.18.1.33-.14.67-.24.92-.45.81-.59,2.59-2.02,3.37-2.64.37-.28.78-.52,1.18-.8.04.03.11.03.15.07-.04.14-.07.24-.15.35-.92,1.32-2.89,3.48-3.81,4.77-.26.35-.59.63-.92.87-1,.66-3.26-.9-3.26-1.95,0-2.4,1.48-5.71,1.92-7.76-3.55,2.12-6.03,6.89-7.66,10.27-.18.42-.41.73-.63,1.11-.26.31-.59.45-1.04.28-.44-.1-.7-.35-.81-.8-.48-1.6-.22-3.13.44-4.63.92-2.16,1.89-4.28,2.89-6.4.33-.66.78-1.25,1.22-1.88.18-.21.41-.42.63-.56.44-.24.96-.1,1.18.38.18.42.3.84.48,1.32.78-.56,1.55-1.11,2.37-1.53Z"/><path class="cls-1" d="m200.55,42.56c.78-2.26,1.7-4.49,2.92-6.58.74-1.29,1.59-2.47,2.66-3.55.26-.24.55-.52.85-.77.96-.8,1.29-.66,1.92.38.59,1.01.41,1.84-.26,2.75-4.59,6.37-7.84,13.26-9.43,20.81-.33,1.6-.48,3.17-.07,4.98-.81-.87-.92-1.74-1-2.57-.26-2.4.07-4.77.44-7.13.04-.24.07-.49-.04-.84-.15.24-.3.49-.48.73-1.26,1.81-2.48,3.62-3.81,5.39-.44.63-1.07,1.15-1.7,1.6-1.41,1.01-3.26.31-3.74-1.22-.55-1.98-.55-3.93-.15-5.88.52-2.33,1.55-4.49,3.29-6.23,1.37-1.36,2.96-2.26,4.96-2.47.89-.1,1.81-.03,2.52.59.3.24.48.59.78.94.11-.35.22-.66.33-.94Zm-1.15,3.62c-.92-.17-1.74.1-2.52.49-2.85,1.32-4.62,3.48-5.44,6.33-.07.28-.11.56-.18.87,2.22-.7,7.4-5.64,8.14-7.69Z"/><path class="cls-1" d="m218.5,47.85c-.26.49-.7.8-1.18.97-1.07.42-2.26,1.11-3.37,1.46-.52.17-.85.35-1.07.77-.74,1.22-1.7,2.37-2.89,3.34-.52.42-1.11.8-1.74,1.11-1.89.84-3.55-.07-4.55-1.67-1.52-2.44-.85-5.92,1.85-9.15.92-1.08,2.03-2.02,3-3.06.67-.66,1.55-1.11,2.63-1.32,1.22-.24,2.11.14,2.81,1.08,1.7,2.3,1.04,4.42.37,6.47h4.14Zm-12.47,4.14c-.41,3.1,3.11.42,4.59-1.43-1.37.17-3.29-1.25-3.7-2.51-.48,1.11-.74,2.89-.89,3.93Zm5.36-8.53c-1.52.56-2.33,1.6-2.77,2.92-.11.35.04.63.37.8.67.45,2.15.63,3.03.63.55-.9,1.81-5.18-.63-4.35Z"/><path class="cls-1" d="m252.46,46.79c-1.44,4.91-3.08,8.06-6.33,12.15-.8,1.07-1.78,1.98-3.09,2.53-2.41.94-5.15.76-6.64-1.19-1-1.25-1.54-2.66-2-4.13-1.32-4.41-1.21-7.8.07-12.19,1.68-5.89,4.87-11.05,9.19-15.66,1.46-1.52,3.18-2.9,5.29-3.57.87-.26,1.76-.44,2.67-.44,2.45,0,3.82,1.52,4.72,3.42.88,1.77.87,3.62.22,5.43-.44,1.28-1.03,2.5-1.62,3.71-.11.24-.53.35-.83.53-.85-1.23-.5-2.78.04-3.99.4-.87.55-1.8.66-2.72.15-.97-1.22-2.63-2.22-2.53-.66.1-1.36.24-1.99.52-1.62.73-2.9,1.87-4.11,3.08-4.67,4.84-7.77,11.13-9,17.49-.26,1.21-.21,3.19-.23,4.41-.02.54.12,1.53.3,2.04.47,1.56,2.02,2,3.48,1.11,1.36-.88,3-1.84,4.14-2.95,2.26-2.27,3.79-4.97,5.99-7.32.38-.37.75-.79,1.13-1.16.11.07.21.11.31.14-.03.46-.01.9-.15,1.29Z"/><path class="cls-1" d="m265.51,41.69c.59-.28,1.26-.38,1.92-.31.59.03,1.04.31,1.33.73.85,1.22,1.74,2.78,1.44,4.21-.52,2.26-2.11,5.74-2.96,7.97-.74-.03-1.85-1.11-1.89-1.84-.22-2.3,2.4-5.39,1.78-7.72-.41-1.67-1.92-1.08-3.88.84-2.63,2.57-4.92,7.79-6.18,10.06-.22.38-.67.45-1.15.31-.52-.17-.74-.42-.89-.9-.52-1.71-.11-3.31.59-4.91,2.52-5.81,5.14-11.62,8.47-17.12.3-.52.67-1.08,1.04-1.57.55-.7,1.22-.59,1.66.14.55,1.01.48,1.95-.07,2.99-1.48,2.75-2.81,5.57-4.18,8.35-.04.07,0,.17-.04.31,1.04-.56,2-1.04,3-1.53Z"/><path class="cls-1" d="m285.23,42.11c.59,1.04.63,2.09.26,3.2-.78,2.26-1.66,4.38-1.63,6.82,3-1.6,4.33-3.48,6.22-4.98.07.03.15.03.18.03-.96,2.75-2.11,3.83-4,6.02-.37.45-.78.8-1.22,1.15-1.41,1.15-3.4.59-3.7-1.11-.18-.9-.22-1.88-.3-2.78-.04-.14.26-2.12.26-2.47-1.78,1.95-3.74,5.88-5.88,7.38-1.18.84-3.22.28-3.66-1.29-.55-1.91-.55-3.83-.07-5.71.41-1.91,1.22-3.76,2.44-5.36.44-.56.96-1.08,1.48-1.5.85-.63,1.55-.35,2,.49.48.87.37,1.53-.3,2.33-1.55,1.81-2.37,3.9-2.85,6.12-.81,4.52,4.4-2.3,8.92-8.11.7-.73,1.29-1.18,1.85-.24Z"/><path class="cls-1" d="m290.88,44.86c.22-.49.37-1.04,1.04-.87.3.1.78.38.74.49-.07.7.52.97.67,1.5.33,1.04.15,1.98-.33,2.89-.78,1.57-1.59,3.13-2.44,4.66-.37.73-.7,1.46-1.07,2.16-.07.1-.3.38-.37.35-.18-.1-.37-.28-.44-.45-.07-.42-.07-.9-.11-1.32.33-3.31,1-6.44,2.33-9.4Zm3.4-8.11c1.04.03,1,.03,1.29.94.07.17.26.35.33.56.67,1.22.37,2.92-.63,3.55-.41.28-.78.56-1.15.84-.92-1.39-.81-4.21.15-5.88Z"/><path class="cls-1" d="m304.72,44.61c-.37.1-.81.14-1.18.28-.44.17-.92.38-1.29.7-2.29,1.74-3.88,3.9-4.77,6.61.48.24.92.1,1.37.03,2.03-.45,3.92-1.22,5.77-2.09,1.81-.87,3.59-1.77,5.4-2.61.41-.21.85-.35,1.41-.42-.15.17-.22.38-.41.56-3.07,2.71-6.14,5.46-9.55,7.86-.85.59-1.74,1.04-2.77,1.25-2.11.49-3.55-.35-4.14-2.3-.55-1.84-.37-3.69.11-5.5.85-3.13,2.74-5.67,5.36-7.72.92-.7,1.96-1.22,3.18-1.22,1.29.03,2.29.52,2.89,1.71.55,1.08.78,2.19.26,3.34-.22.45-.48.9-1.26.94-.15-.49-.26-.9-.37-1.43Z"/><path class="cls-1" d="m319.22,41.69c.59-.28,1.26-.38,1.92-.31.59.03,1.04.31,1.33.73.85,1.22,1.74,2.78,1.44,4.21-.52,2.26-2.11,5.74-2.96,7.97-.74-.03-1.85-1.11-1.89-1.84-.22-2.3,2.4-5.39,1.78-7.72-.41-1.67-1.92-1.08-3.88.84-2.63,2.57-4.92,7.79-6.18,10.06-.22.38-.67.45-1.15.31-.52-.17-.74-.42-.89-.9-.52-1.71-.11-3.31.59-4.91,2.52-5.81,5.14-11.62,8.47-17.12.3-.52.67-1.08,1.04-1.57.55-.7,1.22-.59,1.66.14.55,1.01.48,1.95-.07,2.99-1.48,2.75-2.81,5.57-4.18,8.35-.04.07,0,.17-.04.31,1.04-.56,2-1.04,3-1.53Z"/><path class="cls-1" d="m338.61,42.11c.59,1.04.63,2.09.26,3.2-.78,2.26-1.66,4.38-1.63,6.82,3-1.6,4.33-3.48,6.22-4.98.07.03.15.03.18.03-.96,2.75-2.11,3.83-4,6.02-.37.45-.78.8-1.22,1.15-1.41,1.15-3.4.59-3.7-1.11-.18-.9-.22-1.88-.3-2.78-.04-.14.26-2.12.26-2.47-1.78,1.95-3.74,5.88-5.88,7.38-1.18.84-3.22.28-3.66-1.29-.55-1.91-.55-3.83-.07-5.71.41-1.91,1.22-3.76,2.44-5.36.44-.56.96-1.08,1.48-1.5.85-.63,1.55-.35,2,.49.48.87.37,1.53-.3,2.33-1.55,1.81-2.37,3.9-2.85,6.12-.81,4.52,4.4-2.3,8.92-8.11.7-.73,1.29-1.18,1.85-.24Z"/><path class="cls-1" d="m347.15,47.08c2.07-1.57,3.85-3.38,5.62-5.25.41-.42.81-.87,1.18-1.29.48-.52,1.26-.52,1.66,0,.37.45.74.94.85,1.53.18,1.29.04,2.57-.3,3.86-.78,2.96-1.66,5.95-2.85,8.87-.85,2.23-2.18,4.25-3.96,6.05-.63.63-1.33,1.15-2.03,1.64-1.52,1.08-4.14.42-4.77-1.11-.22-.63-.41-1.25-.59-1.95-.18-1.32-.07-2.68.59-3.9.37-.66.85-1.25,1.74-1.43.11-.03.18-.03.3-.03.04.31-.18.49-.37.73-.67,1.01-.92,2.09-.63,3.27.04.1.07.28.15.42.26.45.44.52.96.28,1.07-.52,1.96-1.15,2.77-1.91,1.92-1.95,3.33-4.14,4.22-6.54.44-1.22.85-2.47,1.29-3.72.04-.07.04-.21.07-.45-.3.28-.52.49-.67.7-1.44,1.36-2.81,2.78-4.29,4.07-.52.52-1.18.87-1.81,1.22-.59.35-1.29.45-2.07.24-.67-.24-1.07-.59-1.29-1.11-.41-1.01-.48-2.09-.26-3.13.44-2.71,1.92-5.15,3.88-7.34.22-.21.44-.42.74-.59.67-.45,1.41-.28,1.85.35.55.77.52,1.22-.18,1.95-.26.24-.52.49-.7.8-.74,1.32-1.44,2.68-2.15,4-.11.17-.15.35-.18.52l.07.07c.37-.28.78-.52,1.15-.8Z"/><path class="cls-1" d="m119.66,26.87c.01-.14.04-.28.05-.42,0-.55-.36-1.01-.85-1.11-.19-.3-.39-.6-.61-.86-.54-.54-1.37-.35-1.73.28-.25.53-.47,1.05-.68,1.57-.55,1.42-.97,2.85-1.61,4.21-1.29,2.69-2.64,5.32-3.99,7.98-.71,1.4-1.8,3.62-2.91,5.88-2.26.23-4.6.61-6.68.57-1.86-.07-3.69.19-5.58,1.08-.95.42-.37.45-1.71.71-.21.01-.91.39-1.02.77-.14.82.96.7,1.95.7,3.81-.01,7.68-.38,11.62-.96-1.3,2.63-2.42,4.83-2.71,5.18-.75.91-1.12,2.05-1.87,2.96-.44.79-.9,1.56-1.71,2.04-.22.13-.44.45-.46.73-.04.36.12.72.13,1.11.04.54.33.71.84.59.08-.02.13.01.22.03-.25.18-.43.3-.61.42.68.59,1.44.65,2.22.04.7-.56,1.34-1.21,1.84-1.96.91-1.31,1.76-2.68,2.52-4.07.19-.36.41-.64.69-.87.04-.08,1.66-3.47,3.3-6.92.84-.15,1.66-.29,2.51-.47.55-.18,1.15-.35,1.74-.54-.32,4.54-.75,10.46-.75,10.57.13.33.18.69.17,1.09-.02,1.59.04,3.2.18,4.78.06.89.3,1.78.63,2.61.37.91,1.07,1.24,1.95,1.06-.1-.19-.2-.39-.33-.66.09.03.14.03.2.08.39.36.72.35,1.03-.09.2-.34.52-.56.66-.9.12-.25.09-.64-.03-.86-.47-.82-.5-1.71-.49-2.62-.2-1.16.04-2.34-.16-3.49-.17-.98.56-11.42.75-15.59.15-2.98.27-5.93.47-8.91.11-1.5.46-2.95.68-4.46,0,0,0,0,0-.01.13-.43.2-.85.14-1.26Zm-8.26,17.4c.79-1.67,1.51-3.17,1.95-4.07,0-.03,0-.06.02-.09.03-.06.07-.12.1-.17.01-.03.03-.06.04-.08,0,0,0,0,0,0,.4-.68.82-1.34,1.23-2.01.01.25.02.5.03.75.04.82.07,1.64.08,2.46,0,0,0,0,0,0,0,.03,0,.06,0,.09,0,.07,0,.13,0,.2,0,.04-.01.06-.02.09-.05.7-.12,1.72-.2,2.9-1.06-.03-2.15-.05-3.24-.07Z"/><path class="cls-2" d="m86.3,73.61c-.22,0-.33,0-.33-.03h.33s-.04-.03-.11-.03h-.11s0-.03,0-.03c-.07,0-.11,0-.11-.03l-.22-.03h-.22s0-.03,0-.03l.22.03c.15,0,.22-.01.22-.03h.22c.07,0,.11-.01.11-.04h-.11s0-.03,0-.03c-.15,0-.22,0-.22-.03.07-.02.07-.03,0-.03l-.33-.03-.11-.03.55.02v-.06c-.07,0-.11,0-.11-.03h-.22s0-.03,0-.03h-.22s-.11-.03-.11-.03h-.22c-.07,0-.11,0-.11-.03h.11c.07,0,.18,0,.33.02h.11c.07,0,.11,0,.11.01,0,.01.04.01.11.01h.11s-.11-.03-.11-.03h-.11s0-.03,0-.03h.22s0-.03,0-.03l-.11-.03h.33s0-.04,0-.04l-.22-.06h-.11s0-.03,0-.03h.22s0-.06,0-.06l-.11-.03v-.09s-.11,0-.11,0l-.11-.03c-.07,0-.11,0-.11-.03h-.11c-.07-.02-.07-.03,0-.03v-.03s.11,0,.11,0c.07,0,.07-.01,0-.03v-.06s-.11,0-.11,0v-.03s-.11,0-.11,0l-.11-.03h-.33s.44-.03.44-.03h.11s0-.03,0-.03l-.22-.03h.33s0-.03,0-.03h-.33s.11-.03.11-.03h.11c-.07-.02-.07-.03,0-.03l-.11-.03h.11c.07,0,.11-.01.11-.03v-.03s-.11-.03-.11-.03h-.11s-.11-.03-.11-.03h.11s.11-.03.11-.03c0-.02-.04-.03-.11-.03h-.11s-.15-.03-.44-.02h-.22c-.15-.01-.26-.02-.33-.02h.98s0-.04,0-.04h-.22s-.11-.03-.11-.03h-.11s-.11-.03-.11-.03h.66s-.11-.04-.11-.04h-.44s-.07-.02-.22-.02h-.44c-.29.01-.48,0-.55-.02l-1.75.02-.22-.03-1.5.02s0,0,0,.01c-.27,0-.54,0-.8,0-6.25-.14-12.49-.29-18.75-.43l-10.41-.21c-1.73-.03-3.42-.06-4.56-.76-1.14-.68-1.88-2.08-2.41-3.62-.52-1.54-.98-3.28-1.48-4.92l-1.47-4.99c-.97-3.33-1.92-6.65-2.79-9.98-.34-1.28-.65-2.57-.96-3.86-.45-2.08-.87-4.16-1.24-6.26l-.43-2.55c-.14-.88-.31-1.78-.53-2.68-.11-.45-.23-.91-.38-1.37-.07-.23-.15-.46-.24-.7-.03-.08-.12-.33-.2-.49l-.24-.52c-.67-1.36-1.76-2.45-3.21-2.42-.18.03-.36.06-.53.09-.17.03-.35.06-.51.14-.34.12-.65.33-.97.54-.29.26-.61.49-.87.81l-.41.45c-.13.15-.27.35-.33.43-.63.84-1.13,1.68-1.6,2.52-.94,1.71-1.67,3.33-2.48,4.97-1.57,3.29-3.09,6.59-4.58,9.91-.48,1.08-.95,2.15-1.42,3.23-.46.21-.93.42-1.4.63-4,1.74-8.15,3.16-12.4,4.19l-.38.08-.31.08-.16.05-1.15.26c-.05.05-.1.11-.13.17l-.09.02c-.05.03-.1.05-.16.03h-.04s-.04.02-.04.03v.02s.08-.02.08-.02h.04s-.16.04-.16.04c.03,0,.04.02.04.03l-.08.02s-.03.01,0,.02c.08-.02.12-.02.12,0l-.12.02s.01.02.04.01h.04s0,.01,0,.01c.03,0,.04,0,.04.01h.08s.08-.01.08-.01v.02s-.08,0-.08,0c-.05.01-.08.02-.08.03l-.08.02s-.04.01-.04.03h.04s0,.01,0,.01c.05-.01.08,0,.08,0-.03.02-.03.02,0,.02h.12s.04,0,.04,0l-.2.02v.04s.04,0,.04.01l.08-.02v.02s.08-.02.08-.02h.02s0,.01,0,.02c0,0-.01,0-.02,0h-.04s-.04.01-.04,0c0,0-.01,0-.04,0h-.04s.04.02.04.02h.04s0,.01,0,.01l-.08.02v.02s.04.01.04.01l-.12.02v.02s.08.02.08.02h.04s0,.01,0,.01l-.08.02v.04s.04.01.04.01v.05s.04,0,.04,0h.04s.04,0,.04.02h.04s.03,0,0,.01v.02s-.04,0-.04,0c-.03,0-.03.01,0,.02v.04s.04,0,.04,0v.02s.04,0,.04,0h.04s.11-.01.11-.01c0,0,0,0,0,0l-.15.05h-.04s0,.03,0,.03h.08s-.12.03-.12.03v.02s.12-.02.12-.02l-.04.03h-.04s.03.02,0,.03h.04s-.04.02-.04.02c-.03,0-.04.01-.04.03v.02s.04.01.04.01h.04s.04,0,.04,0h-.04s-.04.03-.04.03c0,.01.01.02.04.01h.04s.05,0,.16-.02l.08-.02c.05,0,.09,0,.12,0l-.35.07v.02s.08-.02.08-.02h.04s.04,0,.04,0h.04s-.23.06-.23.06h.04s.16-.02.16-.02c0,.01.03.01.08,0l.16-.03c.1-.02.17-.03.2-.02l.63-.13h.08s.34-.07.34-.07c0,0,0,0,0,0,0,0,0,0,.01,0,4.23-.53,8.47-1.35,12.65-2.52-1.89,4.27-3.77,8.55-5.66,12.82-.48,1.08-.86,2.06-1.13,2.93,0,0,0,0,0,0-.06.32-1.21,2.86-1.27,3.19.04.02.08.02.12.04l-.14.86h.04s-.02.12-.02.12h.04s.04.05.03.12c.03,0,.05-.03.06-.1.01-.07.03-.11.06-.1.03,0,.04.04.03.12l-.07.43c-.02.14-.02.22.01.22l.09-.54s.03.11,0,.33c.03-.22.07-.32.1-.32l-.09.54c-.02.15-.02.22.01.22l.05-.32c-.03.22-.04.33,0,.33l-.03.22h.04s.07.13.07.13h.04s.03-.21.03-.21h.04s.01.23.01.23c.03,0,.05-.03.06-.1.02-.14.05-.21.08-.21l-.02.11.03.11.07-.43s.03.08.01.22l-.05.32h.09s.06-.09.06-.09c.05-.13.09-.31.13-.51.01,0,.03.02.04.03l-.03.17c.02.08,0,.22-.02.44h.09s.02-.09.02-.09l.06-.1-.03.22s.04.04.03.12h.09s.04.06.03.13h.04s.06-.09.06-.09c.03,0,.04.04.03.12.03,0,.04.04.03.11h.04s.02-.1.02-.1l.11-.09h.09s.03-.2.03-.2c.03,0,.04.04.03.12-.02.15-.01.18.03.12.03,0,.04.04.03.12-.01.07.01.11.07.12l.03-.22h.04s.02-.1.02-.1c.03,0,.06-.06.08-.21l.03-.22v.22s-.02.22-.02.22c-.01.07,0,.11.03.12.06,0,.09-.02.11-.09h.04s-.03.22-.03.22c-.01.07,0,.07.04,0,.01-.07.03-.07.04,0l-.02.11.03.12.02-.11s.05-.03.06-.1l.02-.11h.04s.02-.1.02-.1c.02-.14.05-.21.08-.21l-.07.43h.04s.04.05.03.12c.03,0,.05-.03.06-.1.03,0,.05-.03.06-.1l.07-.43v.22s-.02.22-.02.22l.03.12.05-.32s.06-.06.08-.21l.02-.11h.04s-.03.22-.03.22c.04-.07.07-.14.08-.21l.13-.53.03.12.02-.11h.09c-.01.09,0,.13.03.13l.06-.1c.01-.07.03-.11.06-.1.03,0,.04.04.03.11h.04s.02-.1.02-.1c.03,0,.03.08.01.22l.02-.11h0c.06-.32,1.51-2.84,1.58-3.19.49-.8,1-1.74,1.5-2.86,2.49-5.5,4.86-11.05,7.25-16.58.82-.31,1.64-.63,2.42-.96.17-.02.33-.09.44-.09l.03.1.15.42.4,1.03,1.35,3.46,5.89-4.02c1.03-.7,2.05-1.42,3.06-2.14.76,3.07,1.59,6.12,2.46,9.14l1.47,5.02.74,2.5c.25.82.5,1.7.83,2.62.34.92.75,1.89,1.39,2.87.63.97,1.54,1.97,2.75,2.65,1.21.68,2.45.93,3.52,1.04,1.08.11,2.02.09,2.87.1,3.47-.01,6.94-.03,10.41-.04,6.53-.04,13.05-.12,19.56-.23,0,0,0,0,0,.01.26,0,.45,0,.55.02.07,0,.2,0,.38-.02.18-.01.31-.02.38-.02l1.31-.02.87-.04h.55s-.11-.04-.11-.04h.55s-.04-.04-.11-.04h.11s0-.06,0-.06h.11s-.22-.03-.22-.03c-.07,0-.11,0-.11-.03h.11s.11-.03.11-.03c.07,0,.11-.01.11-.03v-.06s-.11,0-.11,0v-.03s-.11-.03-.11-.03h-.33s.04-.03.11-.03h.11c.07,0,.11-.01.11-.03h.22s.11-.03.11-.03h-.11s-.04-.03-.11-.03c-.07,0-.11,0-.11-.03v-.06s.11,0,.11,0v-.03s-.11,0-.11,0l-.32-.02s.01-.01.02-.02l.41-.02.11-.03h.66c.14-.05.29-.05.44-.02h.11c.07,0,.11-.01.11-.03v-.03s-.22,0-.22,0l-.11-.03h.44c-.07-.03-.11-.04-.11-.07h.22c.07,0,.07-.01,0-.03Zm-62.93-23.45l-.04-.07c.11,0,.17.06.16.29.03.11-.07-.12-.12-.22Zm5.12-2.78l-.92.66-.42.3h0s0,.01,0,.03h0s0,0,0,0h0s.04.1.04.1l.08.21.08.21.04.1s.02.05.01.04l-.02-.05-.18-.41-.89-2.07-.69-1.6-.17-.4c-.1,0-.25.12-.37.18l-.77.42c-.54.29-1.08.59-1.62.89,1.18-2.71,2.37-5.41,3.6-8.09.76-1.62,1.5-3.33,2.27-4.8.39-.74.81-1.47,1.24-2.06.07-.1.06-.08.06-.09h0s0-.02,0-.02c0-.01.02-.02.03-.03.03,0,.05.02.06.04h0s-.02-.05.03.08c.06.16.13.34.19.51.12.35.23.73.33,1.11.21.77.38,1.56.54,2.38l.51,2.59c.47,2.25.99,4.49,1.55,6.71,0,.01,0,.02,0,.03-.31.06-.62.19-.94.41-1.23.87-2.46,1.75-3.7,2.62Z"/><path class="cls-2" d="m78.51,59.82l-.24-.69c-.09-.23-.14-.45-.27-.69l-.4-.71c-.26-.48-.55-.93-.79-1.43l-.96-1.69c-1.24-2.21-2.45-4.43-3.58-6.66-1.12-2.23-2.19-4.5-2.95-6.67-.03-.09-.06-.17-.1-.25,0,0,0,0,.01,0-.14-.39-.7-1.98-.7-1.98l-.06-.06s-.04,0-.06-.06c-.02.02-.02.05,0,.1.02.05.02.09,0,.1-.02.02-.04,0-.06-.06l-.13-.32c-.04-.11-.07-.15-.09-.14l.16.4s-.06-.06-.12-.22c.06.16.08.25.07.26l-.16-.4c-.04-.11-.07-.15-.09-.14l.09.24c-.06-.16-.1-.23-.12-.22l-.06-.16-.03.02-.09-.03-.03.02.06.16-.03.02-.09-.14s-.02.05,0,.1c.04.1.05.17.04.18l-.03-.08-.06-.06.13.32s-.05-.03-.09-.14l-.09-.24-.06.04v.1c.03.12.07.26.13.42l.06.16-.09-.14-.06-.16s-.09-.14-.15-.29l-.06.04.03.08v.1s-.06-.16-.06-.16c-.02.01-.04,0-.06-.06l-.06.04s-.04,0-.06-.06l-.03.02v.1s-.03,0-.06-.06c-.02.01-.04,0-.06-.06l-.03.02.03.08-.02.12-.06.04.06.16s-.04,0-.06-.06c-.04-.11-.06-.13-.06-.06-.02.01-.04,0-.06-.06-.02-.05-.05-.06-.09-.03l.06.16-.03.02.03.08s0,.07.03.18l.06.16-.09-.14-.06-.16c-.02-.05-.04-.07-.06-.06-.04.03-.05.07-.02.12l-.03.02-.06-.16c-.02-.05-.03-.05-.03.02.02.05.01.06-.03.02l-.03-.08-.06-.06.03.08s-.02.05,0,.1l.03.08-.03.02.03.08c.04.11.05.17.04.18l-.13-.32-.03.02s-.04,0-.06-.06c-.02.01-.02.05,0,.1-.02.02-.02.05,0,.1l.13.32-.09-.14-.06-.16-.06-.06.09.24s0,.07.04.18l.03.08-.03.02-.06-.16c0,.07.01.13.04.18l.13.42-.06-.06.03.08-.06.04c-.02-.05-.04-.07-.06-.06v.1c.02.05.03.09,0,.1-.02.02-.04,0-.06-.06l-.03.02.03.08s-.05-.03-.09-.14l.03.08h0c.17.46.33.93.5,1.39,0,0,.01,0,.02,0,.01.05.02.1.03.16.74,2.45,1.76,4.83,2.83,7.17,1.07,2.34,2.22,4.65,3.41,6.93l1.65,3.15c.12.24.26.46.36.7.1.24.14.51.12.77-.04.53-.36,1.02-.8,1.3-.22.14-.48.24-.75.26-.27.02-.52,0-.79,0l-1.54-.08-.38-.02h-.48s-.96-.04-.96-.04l-1.93-.05-7.72-.19-3.86-.08-1.93-.04c-.17,0-.31,0-.42-.02-.12,0-.24-.03-.37-.04-.24-.04-.48-.1-.71-.18-.92-.33-1.71-1-2.19-1.83-.12-.21-.22-.43-.3-.66-.04-.13-.07-.2-.11-.37l-.13-.47-.52-1.86-.26-.91-.6-2.27c-2.45-9.25-4.91-18.51-7.42-27.74l-1.89-6.92-.24-.87-.06-.22-.03-.12c-.01-.07-.03-.15-.03-.22-.03-.3,0-.6.1-.88.03-.07.05-.14.08-.2l.17-.35.39-.81.79-1.61,3.13-6.46.64-1.33s.02-.02.03-.02c.02,0,.04.02.03.04,1.27,2.35,2.53,4.69,3.8,7.04.42.78.84,1.46,1.24,2.07l1.6,2.54c.07.18.16.35.27.5l.22.44.2.47v-.12s.2.47.2.47c.02-.02.02-.06,0-.12l.04.1.07-.05.04.1-.05-.22c-.03-.06-.03-.1,0-.12l.04.1.08.07c.03.06.05.09.08.07l.07-.05-.04-.1.04-.03v-.12s-.11-.24-.11-.24c.02,0,.04.01.05.01,0,0,0,0,0,0l.04.09c.03.06.05.09.08.07l.08.19.08.07-.04-.09s.02-.06,0-.12c-.03-.06-.03-.1,0-.12l.07-.05s0,0,0,0l.04.09.04-.03-.03-.07s.06,0,.09,0v.02s.09.07.09.07l.25.57c.1.09.16.22.16.38l.04.1c.03.06.05.09.08.07l.04-.03-.08-.19v-.12s.16.38.16.38c0-.08,0-.13.03-.15l.08.19c.03.06.04.05.04-.03-.08-.19-.11-.29-.09-.31l.12.28s.02-.06,0-.12l-.04-.1.04-.03c-.03-.06-.03-.1,0-.12l-.05-.22-.08-.19.04-.03.05.22c.05.13.09.18.12.16l.08.19c.03.06.05.09.08.07l-.04-.1.04-.03c-.05-.13-.07-.2-.05-.22.05.04.06.04.04-.03l-.09-.31v-.12s.16.5.16.5l.07-.05c-.03-.06-.03-.1,0-.12l-.08-.19.04-.03-.08-.19v-.12s-.09-.19-.09-.19c-.03-.06-.03-.1,0-.12l.04.1c.03.06.06.17.09.31l.04.1c.03.06.03.1.02.11-.01,0,0,.04.02.11l.04.1v-.12s-.05-.1-.05-.1l.04-.03.08.19.04-.03v-.12s.12.28.12.28l.04-.03v-.24s-.05-.1-.05-.1l.04-.03.08.19.07-.05v-.12s.1-.08.1-.08l-.04-.1v-.12c-.03-.06-.03-.1,0-.12l-.04-.1c0-.08,0-.09.04-.03l.04-.03.04.1c.03.06.04.05.04-.03l.07-.05-.04-.1.04-.03-.04-.1v-.12s-.13-.28-.13-.28l.2.35.04.1.04-.03-.05-.22.12.29.04-.03-.12-.29.08.07.04.1c0-.08,0-.09.04-.03v-.12s.04.1.04.1c.03.06.05.09.08.07l.04-.03v-.12s-.05-.1-.05-.1v-.12s.04.1.04.1l.08.07s.02-.06,0-.12l-.04-.1s-.02-.15-.13-.41l-.08-.19c-.03-.15-.06-.25-.09-.31l.37.85.04-.03-.08-.19v-.12s-.05-.1-.05-.1v-.12s.24.57.24.57v-.12s-.17-.38-.17-.38c.02-.02,0-.09-.05-.22l-.16-.38c-.11-.25-.17-.42-.17-.5l-1.4-3.12c-.29-.7-.66-1.46-1.1-2.28-1.5-2.78-3-5.57-4.52-8.37-.61-1.04-1.35-1.58-2.33-1.87-.97-.28-2.07-.13-2.92.37-.43.26-.78.54-1.11.97-.33.42-.57,1-.83,1.53l-.91,1.92-3.05,6.48-.76,1.62-.38.81-.21.45c-.1.21-.18.43-.25.65-.28.88-.37,1.83-.26,2.75.03.23.07.46.12.68l.09.34.06.22.25.86,2.03,6.88c1.55,5.18,3.1,10.37,4.64,15.56.68,2.6,1.36,5.2,2.05,7.8l2,7.47.5,1.87.13.47.09.29.11.33c.16.44.35.86.58,1.27.94,1.62,2.47,2.9,4.26,3.5.45.15.91.27,1.38.33.23.03.47.07.7.07l.35.02h.25s1.93.03,1.93.03l3.86.05,7.72.08,4.22.03c1.11-.02,2.33.09,3.27-.18.46-.14.91-.23,1.27-.45.4-.2.77-.48,1.1-.82.66-.68,1.15-1.58,1.28-2.53.08-.47.06-.94,0-1.38-.02-.22-.11-.45-.19-.68Z"/><path class="cls-2" d="m78.68,7.85l-.02.05s.06-.05.02-.05Z"/><path class="cls-2" d="m125.99,66.67h-2.69v-1.23h6.73v1.23h-2.69v7.96h-1.35v-7.96Z"/><path class="cls-2" d="m133.28,65.44h3.16c1.9,0,2.99,1.01,2.99,2.78,0,1.32-.55,2.24-1.56,2.66l1.9,3.75h-1.55l-1.66-3.49h-1.92v3.49h-1.35v-9.19Zm3.16,4.46c1.03,0,1.63-.57,1.63-1.55,0-1.07-.6-1.68-1.63-1.68h-1.81v3.23h1.81Z"/><path class="cls-2" d="m145.34,65.44h6.08v1.23h-4.73v2.74h3.57v1.23h-3.57v2.76h4.73v1.23h-6.08v-9.19Z"/><path class="cls-2" d="m156.96,65.44h1.35v4.96c2.36-.25,3.43-2.57,3.43-4.96h1.33c0,1.9-.65,3.69-1.85,4.88l2.29,4.31h-1.57l-1.82-3.5c-.54.29-1.15.48-1.82.55v2.95h-1.35v-9.19Z"/><path class="cls-2" d="m168.82,65.44h1.35v4.96c2.36-.25,3.43-2.57,3.43-4.96h1.33c0,1.9-.65,3.69-1.85,4.88l2.29,4.31h-1.56l-1.82-3.5c-.54.29-1.14.48-1.82.55v2.95h-1.35v-9.19Z"/><path class="cls-2" d="m181.15,73.4h2.12v-6.73h-2.12v-1.23h5.59v1.23h-2.13v6.73h2.13v1.23h-5.59v-1.23Z"/><path class="cls-2" d="m194.36,67.64h-.13v6.99h-1.35v-9.19h1.73l2.64,6.99h.13v-6.99h1.35v9.19h-1.73l-2.64-6.99Z"/><path class="cls-2" d="m204.25,70.02c0-2.99,1.49-4.71,4.06-4.71,1.29,0,2.3.42,2.76,1.15l-.96.96c-.4-.58-1.03-.92-1.71-.92-1.74,0-2.76,1.26-2.76,3.45,0,2.41.97,3.61,2.88,3.61.41,0,.76-.05,1.07-.12v-2.19h-1.82v-1.23h3.1v4.33c-.36.12-1.35.39-2.51.39-2.74,0-4.11-1.58-4.11-4.73Z"/><path class="cls-2" d="m230.71,73.89c-.66.57-1.52.87-2.56.87-1.58,0-2.63-.93-2.63-2.35,0-1.16.63-2,1.75-2.38-.56-.8-.8-1.47-.8-2.14,0-1.64.96-2.57,2.64-2.57,1.56,0,2.46.75,2.46,2.06h-1.38c0-.56-.38-.87-1.05-.87-.79,0-1.24.5-1.24,1.4,0,.63.35,1.22.93,1.88l1.82,2.08c.22-.59.34-1.32.34-2.18h1.24c0,1.29-.24,2.37-.69,3.2l1.55,1.76h-1.7l-.67-.74Zm-2.66-2.92s-.07-.07-.09-.1c-.72.31-1.13.83-1.13,1.47,0,.74.58,1.23,1.48,1.23.63,0,1.17-.19,1.59-.57l-1.85-2.03Z"/><path class="cls-2" d="m253.36,65.6h1.82l2.57,8.91h-1.32l-.58-2.17h-3.16l-.58,2.17h-1.32l2.57-8.91Zm2.17,5.54l-1.2-4.46h-.11l-1.2,4.46h2.52Z"/><path class="cls-2" d="m261.48,65.6h2.16c2.72,0,4.08,1.51,4.08,4.58,0,2.89-1.35,4.33-4.08,4.33h-2.16v-8.91Zm2.16,7.71c1.83,0,2.76-1.05,2.76-3.14,0-2.26-.93-3.39-2.76-3.39h-.85v6.52h.85Z"/><path class="cls-2" d="m270.97,65.6h1.34l2.08,7.84h.11l2.08-7.84h1.34l-2.51,8.91h-1.94l-2.51-8.91Z"/><path class="cls-2" d="m281.78,65.6h5.9v1.19h-4.59v2.66h3.46v1.19h-3.46v2.67h4.59v1.19h-5.9v-8.91Z"/><path class="cls-2" d="m293.23,67.73h-.13v6.77h-1.3v-8.91h1.68l2.56,6.77h.12v-6.77h1.3v8.91h-1.68l-2.56-6.77Z"/><path class="cls-2" d="m304.07,66.79h-2.61v-1.19h6.52v1.19h-2.61v7.71h-1.3v-7.71Z"/><path class="cls-2" d="m311.93,71.64v-6.05h1.3v6.05c0,1.19.49,1.79,1.58,1.79s1.58-.6,1.58-1.79v-6.05h1.3v6.05c0,1.99-1,2.98-2.91,2.98s-2.86-.99-2.86-2.98Z"/><path class="cls-2" d="m322.02,65.6h3.06c1.84,0,2.9.98,2.9,2.7,0,1.28-.53,2.17-1.51,2.58l1.84,3.63h-1.5l-1.61-3.39h-1.86v3.39h-1.3v-8.91Zm3.06,4.33c1,0,1.58-.55,1.58-1.5,0-1.04-.58-1.63-1.58-1.63h-1.76v3.14h1.76Z"/><path class="cls-2" d="m332.24,65.6h5.9v1.19h-4.59v2.66h3.46v1.19h-3.46v2.67h4.59v1.19h-5.9v-8.91Z"/></g></svg>